<svg width="25" height="24" viewBox="0 0 25 24" fill="none" xmlns="http://www.w3.org/2000/svg">
<g clip-path="url(#clip0_101_223)">
<path d="M2.42611 6.85399L11.6731 1.30999C11.8285 1.21674 12.0064 1.16748 12.1876 1.16748C12.3689 1.16748 12.5467 1.21674 12.7021 1.30999L21.9401 6.85499C22.0142 6.8994 22.0756 6.96227 22.1182 7.03746C22.1607 7.11264 22.1831 7.19758 22.1831 7.28399V20C22.1831 20.2652 22.0777 20.5196 21.8902 20.7071C21.7027 20.8946 21.4483 21 21.1831 21H3.18311C2.91789 21 2.66353 20.8946 2.476 20.7071C2.28846 20.5196 2.18311 20.2652 2.18311 20V7.28299C2.18309 7.19658 2.20546 7.11164 2.24805 7.03646C2.29064 6.96127 2.35198 6.8984 2.42611 6.85399ZM4.18311 8.13299V19H20.1831V8.13199L12.1871 3.33199L4.18311 8.13199V8.13299ZM12.2431 13.698L17.5391 9.23499L18.8271 10.765L12.2571 16.302L5.54711 10.772L6.81911 9.22799L12.2431 13.698Z" fill="white"/>
</g>
<defs>
<clipPath id="clip0_101_223">
<rect width="24" height="24" fill="white" transform="translate(0.183105)"/>
</clipPath>
</defs>
</svg>
