<svg width="33" height="32" viewBox="0 0 33 32" fill="none" xmlns="http://www.w3.org/2000/svg">
<path d="M16.1844 29.3334C8.82061 29.3334 2.85107 23.3638 2.85107 16.0001C2.85107 8.63628 8.82061 2.66675 16.1844 2.66675C23.5482 2.66675 29.5178 8.63628 29.5178 16.0001C29.5178 23.3638 23.5482 29.3334 16.1844 29.3334ZM12.0379 17.5611L12.0548 17.5505C12.8278 20.1023 13.2143 21.3783 13.2143 21.3783C13.364 21.7923 13.5698 21.8662 13.8195 21.8325C14.0691 21.7986 14.2016 21.6635 14.3646 21.5063C14.3646 21.5063 14.893 20.9963 15.9498 19.9765L19.351 22.4931C19.9707 22.8355 20.4182 22.6589 20.572 21.917L22.7824 11.4886C23.0264 10.518 22.5984 10.1287 21.8458 10.4368L8.86839 15.4495C7.98305 15.8054 7.98733 16.3007 8.70721 16.5215L12.0379 17.5611Z" fill="#0595E6"/>
</svg>
