<svg width="32" height="32" viewBox="0 0 32 32" fill="none" xmlns="http://www.w3.org/2000/svg">
<path d="M16.0013 2.6665C23.3651 2.6665 29.3347 8.63604 29.3347 15.9998C29.3347 23.3636 23.3651 29.3332 16.0013 29.3332C13.5561 29.3332 11.2647 28.675 9.29448 27.5261L2.67354 29.3332L4.47616 22.7085C3.32658 20.738 2.66797 18.4458 2.66797 15.9998C2.66797 8.63604 8.6375 2.6665 16.0013 2.6665ZM11.1898 9.74428C11.0172 9.7564 10.8481 9.79853 10.6941 9.87732C10.5786 9.93642 10.4713 10.0219 10.3028 10.181C10.1436 10.3312 10.0514 10.4625 9.95425 10.589C9.46132 11.2308 9.19638 12.0186 9.2013 12.8278C9.20398 13.482 9.3739 14.1177 9.64225 14.7113C10.1864 15.915 11.0838 17.1876 12.2692 18.3677C12.554 18.6512 12.833 18.9377 13.1338 19.2025C14.6051 20.498 16.3584 21.4321 18.2543 21.9308C18.2543 21.9308 19.0009 22.0454 19.0119 22.0461C19.2592 22.0594 19.5061 22.0416 19.7537 22.0289C20.1421 22.0089 20.5213 21.9038 20.8645 21.721C21.0852 21.6036 21.1896 21.5452 21.3748 21.4284C21.3748 21.4284 21.4316 21.39 21.5412 21.3084C21.7212 21.1742 21.8324 21.0798 21.9821 20.9244C22.0925 20.8097 22.1875 20.6742 22.2608 20.5216C22.3651 20.304 22.47 19.8886 22.5117 19.5437C22.5436 19.2802 22.534 19.1362 22.5305 19.047C22.5248 18.9036 22.4063 18.756 22.2764 18.6933L21.5011 18.3448C21.5011 18.3448 20.3417 17.8402 19.6327 17.5168C19.5588 17.483 19.478 17.4674 19.3968 17.4625C19.2189 17.4516 19.0196 17.498 18.8928 17.6316C18.8861 17.6289 18.7979 17.7052 17.8332 18.8738C17.78 18.9374 17.6553 19.0757 17.4397 19.0628C17.4072 19.0605 17.3748 19.0558 17.3432 19.0476C17.2559 19.0245 17.1708 18.9941 17.0876 18.9589C16.9227 18.8889 16.8648 18.8624 16.7521 18.8138C15.9824 18.4776 15.276 18.0277 14.6516 17.4772C14.4841 17.3297 14.3284 17.1709 14.1679 17.0153C13.6076 16.4722 13.1489 15.8946 12.8077 15.3249C12.7891 15.2938 12.7604 15.2489 12.7294 15.1986C12.6736 15.1078 12.612 14.9998 12.5927 14.9257C12.5432 14.7296 12.6746 14.572 12.6746 14.572C12.6746 14.572 12.9992 14.2172 13.15 14.0242C13.295 13.8385 13.4203 13.6569 13.5 13.5274C13.6571 13.2749 13.7068 13.014 13.6243 12.8127C13.2502 11.9007 12.8642 10.9937 12.4665 10.0918C12.388 9.91377 12.1545 9.78445 11.9421 9.75993C11.8702 9.75162 11.7983 9.74328 11.7261 9.73853C11.5474 9.72981 11.3683 9.73173 11.1898 9.74428Z" fill="#13E50F"/>
</svg>
